<svg id="Layer_1" data-name="Layer 1" xmlns="http://www.w3.org/2000/svg" xmlns:xlink="http://www.w3.org/1999/xlink" viewBox="0 0 775.98 321.82"><defs><style>.cls-1{fill:none;}.cls-2{clip-path:url(#clip-path);}.cls-3{fill:#6ad3ff;}.cls-4{clip-path:url(#clip-path-2);}.cls-5{fill:url(#linear-gradient);}.cls-6{clip-path:url(#clip-path-3);}.cls-7{fill:url(#linear-gradient-2);}.cls-8{clip-path:url(#clip-path-4);}.cls-9{fill:url(#linear-gradient-3);}.cls-10{clip-path:url(#clip-path-5);}.cls-11{fill:url(#linear-gradient-4);}.cls-12{clip-path:url(#clip-path-6);}.cls-13{fill:#000031;}.cls-14{fill:#fff;}.cls-15{clip-path:url(#clip-path-7);}.cls-16{fill:url(#linear-gradient-5);}.cls-17{clip-path:url(#clip-path-9);}.cls-18{fill:url(#linear-gradient-6);}</style><clipPath id="clip-path" transform="translate(-10.26 -25.52)"><rect class="cls-1" x="0.86" y="25.52" width="785.38" height="321.82"/></clipPath><clipPath id="clip-path-2" transform="translate(-10.26 -25.52)"><path class="cls-1" d="M431.07,169.49a14.82,14.82,0,0,1,8.71-2.55H440a11.71,11.71,0,0,1,8,2.55q2.92,2.55,3.06,9.93H425.29q2.12-7.38,5.78-9.93m54.37,3a15.69,15.69,0,0,1,7.17-5.86l0.25-.11q4.68-2,8.29-.83t6.33,8L483.58,184q-0.62-7.69,1.86-11.52m110.41-43.86q-3.06,0-4.78.14a4.68,4.68,0,0,0-2.72,1,5,5,0,0,0-1.46,2.62,39.75,39.75,0,0,0-.86,5.18l-6.91,53.61c0,0.18,0,.34-0.07.52a11.12,11.12,0,0,0-.71-2.08,16.44,16.44,0,0,0-5.85-6.67,27.35,27.35,0,0,0-7.84-3.26q-4.78-1.28-9.7-2.27a33.54,33.54,0,0,1-4.05-.78q-1.93-.49-3.79-0.92Q545,175,545,173.6a4.48,4.48,0,0,1,2.39-3.76q2.26-1.35,7.31-1.07,4.25,0.43,8.17,1t7.51,1.42a15.37,15.37,0,0,0,4,.57q2.66,0,3.52-1.42a38.76,38.76,0,0,0,2.19-4.54q0.66-1.84,1.13-3.26a22.56,22.56,0,0,0,.73-2.84,7.93,7.93,0,0,0-.53-4.18q-0.8-1.77-3.59-2.48l-1.59-.43q-5.45-1.13-10.7-1.84a99.49,99.49,0,0,0-10.7-.85q-12.36,0-20.2,7.52a28.15,28.15,0,0,0-4.92,7.16,29.41,29.41,0,0,0-2.52,8.58,37.2,37.2,0,0,0-.4,5.1,17.49,17.49,0,0,0,5.38,11,24,24,0,0,0,12.29,6.17q5.18,1.14,8.37,1.77a31.58,31.58,0,0,1,4.85,1.28,4.88,4.88,0,0,1,2.13,1.27,2.19,2.19,0,0,1,.33,1.63,18.25,18.25,0,0,1-.66,3.33,3,3,0,0,1-1.19,1.7,5.1,5.1,0,0,1-2.19.64q-1.4.14-3.79,0.14a51.84,51.84,0,0,1-8-.71q-4.52-.71-9.43-1.84c-1-.28-1.91-0.52-2.79-0.71a13.44,13.44,0,0,0-1.47-.23s0-.07,0-0.11a14.48,14.48,0,0,0-1.87-3.78,34.64,34.64,0,0,0-4-5q-1.45-1.36-4-.24a12.34,12.34,0,0,0-2,1.08q-1,.65-2.47,1.61a73.23,73.23,0,0,1-6.54,4.29q-2.83,1.61-4.87,2.65a32.19,32.19,0,0,1-8.43,3.11,7.31,7.31,0,0,1-5-.81,9.29,9.29,0,0,1-2.52-2.12A9,9,0,0,1,487,200.6l31-13.43a20.23,20.23,0,0,0,2.14-1.16,9.09,9.09,0,0,0,2.63-2.51,10.54,10.54,0,0,0,1.72-4.34,18.11,18.11,0,0,0-.34-6.74,55,55,0,0,0-4.58-12.63,29.89,29.89,0,0,0-5.75-7.77,18.52,18.52,0,0,0-12.25-5.26,20.06,20.06,0,0,0-5.19.49q-2.37.57-3.89,1.07a73.33,73.33,0,0,0-9,4.27,36.49,36.49,0,0,0-6.58,4.76,30.14,30.14,0,0,0-5,6,47.68,47.68,0,0,0-4,8c-0.22.61-.41,1.26-0.61,1.89,0-.62-0.11-1.23-0.18-1.82a31.68,31.68,0,0,0-2.59-9.5,20.35,20.35,0,0,0-4.39-6.24,20.09,20.09,0,0,0-5.12-3.55,20.37,20.37,0,0,0-5-1.63q-2.39-.43-4-0.57a70.94,70.94,0,0,0-9.83.36,34.58,34.58,0,0,0-7.77,1.77,28.14,28.14,0,0,0-6.71,3.55,44.22,44.22,0,0,0-6.51,5.81,51.09,51.09,0,0,0-11.83,26.66q-2.13,16.74,4,26.95a26.17,26.17,0,0,0,8.64,7.94q5.31,2.84,14.48,2.84a88.08,88.08,0,0,0,16.08-1.28,71.29,71.29,0,0,0,10.5-2.55,6.66,6.66,0,0,0,4.78-5.53,15.16,15.16,0,0,0-.4-4.26,36.91,36.91,0,0,0-1.93-6.24q-0.87-1.84-3.65-1.85a11.9,11.9,0,0,0-2.19.21q-1.13.21-2.86,0.5a69.6,69.6,0,0,1-7.57,1.35q-3.19.36-5.45,0.5a31.47,31.47,0,0,1-8.9-.5,7.66,7.66,0,0,1-4.39-2.77,10,10,0,0,1-1.6-3,9.39,9.39,0,0,1-.4-4.25h33.49a19.64,19.64,0,0,0,2.39-.21,8.54,8.54,0,0,0,3.32-1.28,9.85,9.85,0,0,0,3.12-3.33c0-.07.08-0.15,0.12-0.22a52.46,52.46,0,0,0,1.36,9.67q3.92,16.37,13.18,23.37a24.53,24.53,0,0,0,10.8,3.9q5.92,0.5,14.42-3.18a91.84,91.84,0,0,0,14.45-7.63l1.26-.84c0,0.06,0,.12,0,0.17q-0.4,2.84,1.46,4a28.86,28.86,0,0,0,6,2.62,68.69,68.69,0,0,0,11.16,2.48,81,81,0,0,0,10.9.78,39.32,39.32,0,0,0,11-1.28,26.34,26.34,0,0,0,9.57-5.46,22.87,22.87,0,0,0,5.85-8,22.64,22.64,0,0,0,1.53-4.68l0.14-.64a25.83,25.83,0,0,0,1.78,8.15,16.51,16.51,0,0,0,8.57,8.3,30.89,30.89,0,0,0,12.69,2.62,43.31,43.31,0,0,0,8.51-.85,15.77,15.77,0,0,0,5-1.92,4.46,4.46,0,0,0,1.79-3.33q0.13-1.13.2-2.13a5,5,0,0,0-.2-1.84l-0.4-2a17.29,17.29,0,0,0-2.06-6q-1.13-1.56-4.85-1.42l-2.79.14a22.29,22.29,0,0,1-5,0,3.59,3.59,0,0,1-3.19-2.27,11.65,11.65,0,0,1-.47-5.46q0.33-3.62.87-7.31l2.66-21.41h12.36a14.78,14.78,0,0,0,4.92-.64,6,6,0,0,0,2.72-1.91A7,7,0,0,0,622.5,164q0.33-1.91.73-4.47l0.13-.85q0.4-3,.46-4.61a3.41,3.41,0,0,0-.53-2.34,3.07,3.07,0,0,0-2.13-.85q-1.53-.14-4.32-0.14H603.7l1.73-13.19a48.17,48.17,0,0,0,.4-5.18,3.72,3.72,0,0,0-.8-2.62,4,4,0,0,0-2.66-1q-1.86-.14-5-0.14h-1.46Z"/></clipPath><linearGradient id="linear-gradient" x1="0.34" y1="301.53" x2="1.41" y2="301.53" gradientTransform="matrix(0, 93.2, 93.2, 0, -27598.54, 71.09)" gradientUnits="userSpaceOnUse"><stop offset="0" stop-color="#ff0c79"/><stop offset="1" stop-color="#ff3636"/></linearGradient><clipPath id="clip-path-3" transform="translate(-10.26 -25.52)"><path class="cls-1" d="M384.63,128.65q-3.06,0-4.78.14a4.67,4.67,0,0,0-2.72,1,5,5,0,0,0-1.46,2.62,40.28,40.28,0,0,0-.86,5.18l-6.91,53.61a85.72,85.72,0,0,0-1.06,12.91,27.49,27.49,0,0,0,1.86,10.49,16.52,16.52,0,0,0,8.57,8.3,30.89,30.89,0,0,0,12.69,2.62,43.29,43.29,0,0,0,8.5-.85,15.78,15.78,0,0,0,5-1.92,4.46,4.46,0,0,0,1.79-3.33q0.13-1.13.2-2.13a5,5,0,0,0-.2-1.84l-0.4-2a17.26,17.26,0,0,0-2.06-6q-1.13-1.56-4.85-1.42l-2.79.14a22.3,22.3,0,0,1-5,0,3.6,3.6,0,0,1-3.19-2.27,11.65,11.65,0,0,1-.47-5.46q0.33-3.62.87-7.31l2.66-21.41h12.36a14.78,14.78,0,0,0,4.92-.64,6,6,0,0,0,2.73-1.91,7.06,7.06,0,0,0,1.33-3.19q0.33-1.91.73-4.47l0.13-.85q0.4-3,.46-4.61a3.41,3.41,0,0,0-.53-2.34,3.08,3.08,0,0,0-2.13-.85q-1.53-.14-4.32-0.14H392.47l1.73-13.19a48.65,48.65,0,0,0,.4-5.18,3.72,3.72,0,0,0-.8-2.62,4,4,0,0,0-2.66-1q-1.86-.14-5-0.14h-1.46Z"/></clipPath><linearGradient id="linear-gradient-2" x1="0.35" y1="301.53" x2="1.42" y2="301.53" gradientTransform="matrix(0, 90.76, 90.76, 0, -26987.26, 71.09)" xlink:href="#linear-gradient"/><clipPath id="clip-path-4" transform="translate(-10.26 -25.52)"><path class="cls-1" d="M636.82,180a20.12,20.12,0,0,1,3.65-5.6,14.37,14.37,0,0,1,5.18-3.55,15.17,15.17,0,0,1,6.84-.92q6.91,0.57,9.24,6.17t1.13,13.83q-1.33,7.66-5.38,12.05a14,14,0,0,1-10.83,4.4h-1.59a13.41,13.41,0,0,1-5.71-2,9.41,9.41,0,0,1-4.32-5.74,22.34,22.34,0,0,1-.6-9.43,9.25,9.25,0,0,1,.27-2.13v0.14a29.42,29.42,0,0,1,2.13-7.23m4.25-28.15a34.2,34.2,0,0,0-12,7.31,38.51,38.51,0,0,0-8.37,11.7,63.5,63.5,0,0,0-4.85,15v-0.14a14.35,14.35,0,0,0-.4,2.2c-0.09.8-.18,1.54-0.27,2.2q-1.46,11.35,1.73,19.64a21.67,21.67,0,0,0,10.23,12,35.21,35.21,0,0,0,13.55,3.83,12.69,12.69,0,0,0,1.86.14h2q15.81,0,25.18-9.15t12.16-24.75a64.2,64.2,0,0,0,.6-16,34,34,0,0,0-3.72-12.91,23.82,23.82,0,0,0-8.37-8.93,28.43,28.43,0,0,0-13.35-4q-1.67-.1-3.27-0.1a37.35,37.35,0,0,0-12.68,2"/></clipPath><linearGradient id="linear-gradient-3" x1="0.47" y1="301.54" x2="1.54" y2="301.54" gradientTransform="matrix(0, 71.06, 71.06, 0, -20788.51, 90.93)" xlink:href="#linear-gradient"/><clipPath id="clip-path-5" transform="translate(-10.26 -25.52)"><path class="cls-1" d="M749.78,169.49a14.81,14.81,0,0,1,8.7-2.55h0.27a11.71,11.71,0,0,1,8,2.55q2.92,2.55,3.05,9.93H744q2.13-7.38,5.78-9.93m-56.66-18.86a24.22,24.22,0,0,0-4.72,2,25.18,25.18,0,0,0-4.12,2.7,3.32,3.32,0,0,0-.8.85,5.37,5.37,0,0,0-.8,2.27l-0.8,6.1a4,4,0,0,0,.8,3.26,3.45,3.45,0,0,0,2.79,1.28h3.06L682,215.73a26.85,26.85,0,0,0-.33,4.61,4.88,4.88,0,0,0,.8,2.77,3.38,3.38,0,0,0,2.19,1.28,20.83,20.83,0,0,0,3.86.28h4.78q4.65-.28,6.25-1.92t2.26-7l6.11-45.67A44,44,0,0,1,714,169a60.83,60.83,0,0,1,6.38-.35,23.91,23.91,0,0,1,4.12.43,9.2,9.2,0,0,0,3.26,0,4.62,4.62,0,0,0,1-.37c-0.81,1.4-1.59,2.86-2.32,4.41a50,50,0,0,0-4.32,15q-2.13,16.74,4,26.95a26.17,26.17,0,0,0,8.64,7.94q5.31,2.84,14.48,2.84a88.09,88.09,0,0,0,16.08-1.28,71.26,71.26,0,0,0,10.5-2.55,6.65,6.65,0,0,0,4.78-5.53,15.12,15.12,0,0,0-.4-4.26,36.93,36.93,0,0,0-1.93-6.24q-0.87-1.84-3.66-1.85a11.92,11.92,0,0,0-2.19.21q-1.13.21-2.85,0.5a69.69,69.69,0,0,1-7.58,1.35q-3.19.36-5.45,0.5a31.49,31.49,0,0,1-8.9-.5,7.66,7.66,0,0,1-4.39-2.77,10,10,0,0,1-1.59-3,9.36,9.36,0,0,1-.4-4.25h33.49a19.62,19.62,0,0,0,2.39-.21,8.55,8.55,0,0,0,3.32-1.28,9.86,9.86,0,0,0,3.12-3.33,17.75,17.75,0,0,0,2.06-6.38,71.4,71.4,0,0,0,.52-8v-0.4a41.56,41.56,0,0,0-.32-5.18,31.68,31.68,0,0,0-2.59-9.5,20.35,20.35,0,0,0-4.39-6.24,20,20,0,0,0-5.11-3.55,20.39,20.39,0,0,0-5-1.63q-2.39-.43-4-0.57a71,71,0,0,0-9.83.36,34.56,34.56,0,0,0-7.77,1.77,28.13,28.13,0,0,0-6.71,3.55,44.42,44.42,0,0,0-6.51,5.81c-0.43.49-.86,1-1.27,1.53l0.42-1,0.93-2.13c0.26-.76.53-1.56,0.8-2.41a19,19,0,0,0,.53-2,5.33,5.33,0,0,0-.33-3.19,3.87,3.87,0,0,0-1.93-1.63,9,9,0,0,0-3.12-.64c-1.2,0-2.46-.07-3.79-0.07h-1.06q-3.06,0-6.18.22t-5.12.49A24.27,24.27,0,0,0,707,153a9.42,9.42,0,0,0-3.06-2.34,10.44,10.44,0,0,0-4.65-.92,20.71,20.71,0,0,0-6.18.85"/></clipPath><linearGradient id="linear-gradient-4" x1="0.47" y1="301.54" x2="1.54" y2="301.54" gradientTransform="matrix(0, 71.23, 71.23, 0, -20753.44, 90.89)" xlink:href="#linear-gradient"/><clipPath id="clip-path-6" transform="translate(-10.26 -25.52)"><rect class="cls-1" x="10.26" y="25.52" width="775.98" height="321.82"/></clipPath><clipPath id="clip-path-7" transform="translate(-10.26 -25.52)"><path class="cls-1" d="M93.69,214.83c-6.48,7.35-11.47,16.42-13,26.49-1.8,11.9-.68,24.32.95,36.16a311.76,311.76,0,0,0,7.76,37.82c2.16,8.1,4.36,16.56,7.86,24.13,5.9-5.45,13.26-9,20.31-12.3,14.09-6.63,28.7-12.07,42.28-19.88,11.49-6.58,22.46-14.93,27.28-28.46v0a0.05,0.05,0,0,0,0,0v0a1.1,1.1,0,0,0,.06-0.16,0.24,0.24,0,0,0,0-.06c0-.11.07-0.24,0.12-0.35a1.28,1.28,0,0,0,.07-0.21,65.21,65.21,0,0,0-2.34-48c-3.06,5-8.29,7.6-13.59,8.58-12.24,2.23-25.47-2.76-35.48-10.22-8.66-6.48-18.47-18.16-15.14-30.55a56.06,56.06,0,0,0-27.2,17.09"/></clipPath><linearGradient id="linear-gradient-5" x1="0.08" y1="301.16" x2="1.07" y2="301.16" gradientTransform="matrix(112.52, 0, 0, -112.52, 60.08, 34128.68)" xlink:href="#linear-gradient"/><clipPath id="clip-path-9" transform="translate(-10.26 -25.52)"><path class="cls-1" d="M183.67,121c0.41,12.32,18.72,7.33,15.48.52-0.65-1.35-2.78-1.81-5.42-1.81A53.39,53.39,0,0,0,183.67,121"/></clipPath><linearGradient id="linear-gradient-6" x1="0.51" y1="299.4" x2="1.5" y2="299.4" gradientTransform="matrix(16.06, 0, 0, -16.06, 165.25, 4907.82)" xlink:href="#linear-gradient"/></defs><title>shoplogo</title><g class="cls-2"><path class="cls-3" d="M609,222.81a17.26,17.26,0,0,0-2.06-6q-1.13-1.56-4.85-1.42l-2.79.14a22.3,22.3,0,0,1-5,0,3.59,3.59,0,0,1-3.19-2.27,11.66,11.66,0,0,1-.47-5.46q0.33-3.62.86-7.31l2.66-21.42h12.36a14.81,14.81,0,0,0,4.92-.64,6,6,0,0,0,2.72-1.91,7.05,7.05,0,0,0,1.33-3.19q0.33-1.91.73-4.47l0.13-.85c0.27-2,.42-3.52.46-4.61a3.41,3.41,0,0,0-.53-2.34,3.06,3.06,0,0,0-2.13-.85q-1.53-.14-4.32-0.14H596.61l1.73-13.19a48.36,48.36,0,0,0,.4-5.18,3.72,3.72,0,0,0-.8-2.62,4,4,0,0,0-2.66-1q-1.86-.14-5-0.14h-1.46q-3.06,0-4.78.14a4.67,4.67,0,0,0-2.72,1,5,5,0,0,0-1.46,2.62,40.46,40.46,0,0,0-.86,5.18L572,200.55c0,0.18,0,.34-0.07.52a11.24,11.24,0,0,0-.71-2.08,16.45,16.45,0,0,0-5.85-6.67,27.35,27.35,0,0,0-7.84-3.26q-4.78-1.28-9.7-2.27a33.79,33.79,0,0,1-4.05-.78q-1.93-.49-3.79-0.92-2.13-.71-2.13-2.13a4.49,4.49,0,0,1,2.39-3.76q2.26-1.34,7.31-1.06,4.25,0.43,8.17,1t7.51,1.42a15.41,15.41,0,0,0,4,.57q2.66,0,3.52-1.42a38.5,38.5,0,0,0,2.19-4.54q0.67-1.84,1.13-3.26a22.4,22.4,0,0,0,.73-2.84,8,8,0,0,0-.53-4.18q-0.8-1.77-3.59-2.48l-1.59-.43q-5.45-1.13-10.7-1.84a99.24,99.24,0,0,0-10.7-.85q-12.36,0-20.2,7.52a28.15,28.15,0,0,0-4.92,7.16,29.37,29.37,0,0,0-2.52,8.58,37,37,0,0,0-.4,5.1,17.48,17.48,0,0,0,5.38,11,24,24,0,0,0,12.29,6.17q5.18,1.14,8.37,1.77a31.61,31.61,0,0,1,4.85,1.28,4.9,4.9,0,0,1,2.13,1.27,2.21,2.21,0,0,1,.33,1.63,18.61,18.61,0,0,1-.66,3.33,3,3,0,0,1-1.2,1.7,5.08,5.08,0,0,1-2.19.64q-1.4.14-3.79,0.14a51.73,51.73,0,0,1-8-.71q-4.52-.71-9.43-1.84c-1-.28-1.91-0.52-2.79-0.71a13.72,13.72,0,0,0-1.47-.23s0-.07,0-0.11a14.51,14.51,0,0,0-1.87-3.78,34.63,34.63,0,0,0-4-5q-1.45-1.36-4-.24a12.57,12.57,0,0,0-2,1.08q-1,.65-2.47,1.61a73.37,73.37,0,0,1-6.55,4.29q-2.83,1.61-4.87,2.64a32.12,32.12,0,0,1-8.42,3.11,7.31,7.31,0,0,1-5-.81,9.23,9.23,0,0,1-2.52-2.12,9,9,0,0,1-1.87-3.78l31-13.43a20.65,20.65,0,0,0,2.14-1.16,9.12,9.12,0,0,0,2.63-2.51,10.55,10.55,0,0,0,1.72-4.34,18.13,18.13,0,0,0-.34-6.74,55,55,0,0,0-4.58-12.63,29.89,29.89,0,0,0-5.75-7.77,18.52,18.52,0,0,0-12.25-5.26,20,20,0,0,0-5.19.49q-2.37.57-3.89,1.07a73.26,73.26,0,0,0-9,4.27,36.59,36.59,0,0,0-6.58,4.76,30.18,30.18,0,0,0-5,6,47.48,47.48,0,0,0-4,8c-0.22.61-.41,1.26-0.61,1.89,0-.62-0.11-1.23-0.18-1.82a31.68,31.68,0,0,0-2.59-9.5,20.37,20.37,0,0,0-4.39-6.24,20.11,20.11,0,0,0-5.12-3.55,20.38,20.38,0,0,0-5-1.63q-2.39-.43-4-0.57a70.79,70.79,0,0,0-9.83.36,34.61,34.61,0,0,0-7.77,1.77,28.09,28.09,0,0,0-6.71,3.55,44.21,44.21,0,0,0-6.51,5.81,51.09,51.09,0,0,0-11.83,26.66q-2.13,16.74,4,26.95a26.16,26.16,0,0,0,8.64,7.94q5.31,2.84,14.48,2.84a88.2,88.2,0,0,0,16.08-1.28,71.11,71.11,0,0,0,10.5-2.56,6.65,6.65,0,0,0,4.78-5.53,15.12,15.12,0,0,0-.4-4.26,37,37,0,0,0-1.93-6.24q-0.87-1.84-3.65-1.85a11.9,11.9,0,0,0-2.19.21q-1.13.22-2.86,0.5a69.86,69.86,0,0,1-7.57,1.35q-3.19.36-5.45,0.5a31.52,31.52,0,0,1-8.9-.5,7.66,7.66,0,0,1-4.39-2.77,10,10,0,0,1-1.6-3,9.4,9.4,0,0,1-.4-4.26H449a19.67,19.67,0,0,0,2.39-.21,8.51,8.51,0,0,0,3.32-1.28,9.85,9.85,0,0,0,3.12-3.33c0-.07.08-0.15,0.12-0.22a52.47,52.47,0,0,0,1.36,9.67q3.92,16.37,13.18,23.37a24.56,24.56,0,0,0,10.8,3.9q5.92,0.5,14.42-3.18a91.74,91.74,0,0,0,14.45-7.63l1.26-.84c0,0.06,0,.12,0,0.17q-0.4,2.84,1.46,4a28.9,28.9,0,0,0,6,2.62A68.71,68.71,0,0,0,532,235.08a81,81,0,0,0,10.9.78,39.32,39.32,0,0,0,11-1.28,26.35,26.35,0,0,0,9.57-5.46,23.76,23.76,0,0,0,7.38-12.69l0.13-.64a25.89,25.89,0,0,0,1.78,8.15,16.51,16.51,0,0,0,8.57,8.3,30.89,30.89,0,0,0,12.69,2.62,43.22,43.22,0,0,0,8.5-.85,15.77,15.77,0,0,0,5-1.91,4.46,4.46,0,0,0,1.79-3.33q0.13-1.14.2-2.13a5,5,0,0,0-.2-1.84Zm-190.77-34q2.12-7.37,5.78-9.93a14.81,14.81,0,0,1,8.71-2.55H433a11.7,11.7,0,0,1,8,2.55q2.92,2.55,3.06,9.93H418.2Zm60.15-6.91a15.69,15.69,0,0,1,7.17-5.86l0.24-.11q4.68-2,8.29-.83t6.33,8L476.5,193.38q-0.63-7.69,1.86-11.52" transform="translate(-10.26 -25.52)"/><path class="cls-3" d="M397.74,222.81a17.27,17.27,0,0,0-2.06-6q-1.13-1.56-4.85-1.42l-2.79.14a22.29,22.29,0,0,1-5,0,3.6,3.6,0,0,1-3.19-2.27,11.66,11.66,0,0,1-.47-5.46q0.33-3.62.86-7.31l2.66-21.42h12.36a14.81,14.81,0,0,0,4.92-.64,6,6,0,0,0,2.73-1.91,7.06,7.06,0,0,0,1.33-3.19q0.33-1.91.73-4.47l0.13-.85q0.4-3,.46-4.61a3.41,3.41,0,0,0-.53-2.34,3.07,3.07,0,0,0-2.13-.85q-1.53-.14-4.32-0.14H385.38l1.73-13.19a48.36,48.36,0,0,0,.4-5.18,3.72,3.72,0,0,0-.8-2.62,4,4,0,0,0-2.66-1q-1.86-.14-5-0.14h-1.46q-3.06,0-4.78.14a4.67,4.67,0,0,0-2.72,1,5,5,0,0,0-1.46,2.62,40.08,40.08,0,0,0-.87,5.18l-6.91,53.61a85.7,85.7,0,0,0-1.06,12.91,27.46,27.46,0,0,0,1.86,10.49,16.51,16.51,0,0,0,8.57,8.3,30.89,30.89,0,0,0,12.69,2.62,43.23,43.23,0,0,0,8.51-.85,15.77,15.77,0,0,0,5-1.91,4.46,4.46,0,0,0,1.79-3.33q0.13-1.14.2-2.13a5,5,0,0,0-.2-1.84Z" transform="translate(-10.26 -25.52)"/><path class="cls-3" d="M675.37,185.09a33.94,33.94,0,0,0-3.72-12.91,23.81,23.81,0,0,0-8.37-8.93,28.4,28.4,0,0,0-13.36-4A39.7,39.7,0,0,0,634,161.19a34.16,34.16,0,0,0-12,7.31,38.49,38.49,0,0,0-8.37,11.7,63.44,63.44,0,0,0-4.85,15V195a14.09,14.09,0,0,0-.4,2.2c-0.09.8-.18,1.54-0.27,2.2q-1.47,11.35,1.73,19.64A21.67,21.67,0,0,0,620,231a35.17,35.17,0,0,0,13.55,3.83,12.52,12.52,0,0,0,1.86.14h2q15.81,0,25.18-9.15t12.16-24.75a64.21,64.21,0,0,0,.6-16m-19.6,14.18q-1.33,7.66-5.38,12.05a14,14,0,0,1-10.83,4.4H638a13.44,13.44,0,0,1-5.71-2,9.41,9.41,0,0,1-4.32-5.74,22.34,22.34,0,0,1-.6-9.43,9.27,9.27,0,0,1,.27-2.13v0.14a29.52,29.52,0,0,1,2.13-7.24,20.17,20.17,0,0,1,3.65-5.6,14.39,14.39,0,0,1,5.18-3.55,15.17,15.17,0,0,1,6.84-.92q6.91,0.57,9.24,6.17t1.13,13.83" transform="translate(-10.26 -25.52)"/><path class="cls-3" d="M778.83,180.76a31.66,31.66,0,0,0-2.59-9.5,20.35,20.35,0,0,0-4.39-6.24,20.08,20.08,0,0,0-5.12-3.55,20.41,20.41,0,0,0-5-1.63q-2.39-.43-4-0.57a71,71,0,0,0-9.83.36,34.57,34.57,0,0,0-7.77,1.77,28.12,28.12,0,0,0-6.71,3.55,44.33,44.33,0,0,0-6.51,5.81c-0.43.49-.85,1-1.27,1.53l0.43-1L727,169.2q0.4-1.14.8-2.41a19.28,19.28,0,0,0,.53-2,5.33,5.33,0,0,0-.33-3.19,3.86,3.86,0,0,0-1.93-1.63,9,9,0,0,0-3.12-.64c-1.2,0-2.46-.07-3.79-0.07h-1.06q-3.06,0-6.18.22t-5.12.49a24.32,24.32,0,0,0-6.91,2.41,9.43,9.43,0,0,0-3.06-2.34,10.45,10.45,0,0,0-4.65-.92A20.75,20.75,0,0,0,686,160a24.12,24.12,0,0,0-4.72,2,25.19,25.19,0,0,0-4.12,2.69,3.33,3.33,0,0,0-.8.85,5.37,5.37,0,0,0-.8,2.27l-0.8,6.1a4,4,0,0,0,.8,3.26,3.45,3.45,0,0,0,2.79,1.28h3.06l-6.51,46.66a27,27,0,0,0-.33,4.61,4.89,4.89,0,0,0,.8,2.77,3.39,3.39,0,0,0,2.19,1.27,20.82,20.82,0,0,0,3.85.28h4.78q4.65-.28,6.25-1.92t2.26-7l6.11-45.67a44.08,44.08,0,0,1,6.11-1.07,60.83,60.83,0,0,1,6.38-.35,24,24,0,0,1,4.12.42,9.15,9.15,0,0,0,3.26,0,4.63,4.63,0,0,0,1-.37c-0.81,1.4-1.59,2.86-2.32,4.41a50,50,0,0,0-4.32,15q-2.13,16.74,4,26.95a26.18,26.18,0,0,0,8.64,7.94q5.31,2.84,14.48,2.84a88.11,88.11,0,0,0,16.08-1.28,71.29,71.29,0,0,0,10.5-2.55,6.66,6.66,0,0,0,4.78-5.53,15.08,15.08,0,0,0-.4-4.25,36.84,36.84,0,0,0-1.92-6.24q-0.87-1.84-3.66-1.85a11.81,11.81,0,0,0-2.19.21q-1.13.21-2.86,0.5a69.66,69.66,0,0,1-7.57,1.35q-3.19.36-5.45,0.5a31.48,31.48,0,0,1-8.9-.5,7.66,7.66,0,0,1-4.39-2.77,10,10,0,0,1-1.59-3,9.38,9.38,0,0,1-.4-4.25h33.49a19.75,19.75,0,0,0,2.39-.22,8.54,8.54,0,0,0,3.32-1.27,9.87,9.87,0,0,0,3.12-3.33,17.77,17.77,0,0,0,2.06-6.38,56.43,56.43,0,0,0,.2-13.55m-41.93,8q2.13-7.37,5.78-9.93a14.8,14.8,0,0,1,8.7-2.55h0.27a11.71,11.71,0,0,1,8,2.55q2.92,2.55,3.05,9.93H736.91Z" transform="translate(-10.26 -25.52)"/></g><g class="cls-4"><rect class="cls-5" x="391.82" y="103.12" width="221.79" height="99.74"/></g><g class="cls-6"><rect class="cls-7" x="356.56" y="103.12" width="45.82" height="96.87"/></g><g class="cls-8"><rect class="cls-9" x="603.92" y="124.29" width="68.77" height="75.84"/></g><g class="cls-10"><rect class="cls-11" x="671.38" y="124.25" width="104.6" height="76.02"/></g><g class="cls-12"><path class="cls-13" d="M304.23,158.92a167.47,167.47,0,0,0-4.51-20.62c0-.14-0.09-0.3-0.14-0.46a163.41,163.41,0,0,0-38.14-67,149.21,149.21,0,0,0-16-14.58c1.19-9.52-6.77-17.37-13.87-21.3-7.31-4.08-18-6.66-25.18-.76a138.27,138.27,0,0,0-94.7-.57c-3.72,1.33-7.42,2.82-11,4.48q-2.73,1.25-5.41,2.6c-1.19.61-2.36,1.23-3.55,1.87-0.74.39-2.28,1.71-3.07,1.71a154.64,154.64,0,0,0-58.29,60.61A171.44,171.44,0,0,0,22.48,249c15.94-6.41,34.26,1.64,41.54,18.21,0.47,1.07.89,2.17,1.25,3.28a1.68,1.68,0,0,0,1.26,1.3c0.57,0.28,1.14.54,1.7,0.85a45.1,45.1,0,0,1,7.43,5,297.14,297.14,0,0,0,10.16,47.21,145.32,145.32,0,0,0,5.47,15.64c1.11,2.58,2.91,7.89,6.43,6.81,1.29-.37,2.14-1.74,3.1-2.65a32.35,32.35,0,0,1,3.48-2.86,75,75,0,0,1,8.68-5.27c7-3.67,14.21-6.76,21.41-9.89,12.45-5.46,25.08-10.94,36.43-18.78a64.39,64.39,0,0,0,15.31-14.2c4.79-6.4,7.63-14.29,9.24-22.27a43.14,43.14,0,0,1,54.56,4.07,42.86,42.86,0,0,1,34.56-6.51,170.29,170.29,0,0,0,16.84-42.55v0c2.77-10,4-20.76,4.61-31.19a167.54,167.54,0,0,0-1.73-36.14M62.42,180.15c-3.3,0-3.3-5.55,0-5.55s3.31,5.55,0,5.55M50.07,90.25a155.35,155.35,0,0,0-22.52,35.2c-0.27.59-.54,1.18-0.81,1.78,0.14-.36.29-0.73,0.42-1.11l0.41-1q0-.1.09-0.22c0.33-.78.63-1.56,1-2.35a155.22,155.22,0,0,1,10.79-21.19A151.48,151.48,0,0,1,72.7,62.86a136.9,136.9,0,0,1,18.74-13l0,0h0a133.67,133.67,0,0,1,86.15-16.54,132.05,132.05,0,0,1,24.76,6.17q-2.43,4-5,8.25a132.86,132.86,0,0,0-85.14-.17A141.92,141.92,0,0,0,50.07,90.25M141.79,73.3a1.7,1.7,0,1,1-3.4,0,1.7,1.7,0,1,1,3.4,0m-17.73,73.87a1.7,1.7,0,1,1-3.4,0,1.7,1.7,0,1,1,3.4,0M98.26,105.5a2.56,2.56,0,1,1-5.12,0,2.56,2.56,0,1,1,5.12,0m89.17,172.42a0.9,0.9,0,0,1-.07.21,0.16,0.16,0,0,0,0,.06,0.65,0.65,0,0,0,0,.15s0,0.1,0,.14a0.36,0.36,0,0,0,0,.06s0,0.1-.06.16h0a0,0,0,0,1,0,0v0h0c-4.82,13.53-15.79,21.88-27.28,28.47-13.59,7.8-28.19,13.26-42.28,19.88-7.05,3.3-14.42,6.85-20.31,12.3-3.51-7.58-5.71-16-7.86-24.13a312.23,312.23,0,0,1-7.77-37.81c-1.62-11.84-2.75-24.26-.94-36.16,1.53-10.08,6.53-19.15,13-26.49a56,56,0,0,1,27.21-17.09c-3.33,12.39,6.47,24.06,15.14,30.55,10,7.46,23.24,12.46,35.48,10.22,5.3-1,10.52-3.63,13.59-8.58a65.18,65.18,0,0,1,2.33,48m-5.67-55v0a0,0,0,0,1,0,0v0s0,0.06-.06.13,0,0.13-.07.19l-0.32.78-0.09-.05c-1.31,4.5-5.49,6.94-9.51,7.91-5.45,1.31-11.26.57-16.59-1-10.33-3.06-21.53-10-26.81-20.47-2.06-4.12-3-9.07-.74-13.3l-0.09-.05q10.72-23.09,21.89-45.95c3.32,9.17,11.1,15.95,19,20.35,9.28,5.22,21.12,8.57,31.38,4.77q-8.71,23.45-17.94,46.63m41.17-15c-3.3,0-3.3-5.54,0-5.54s3.3,5.54,0,5.54M237.79,62c-1,3.77-2.14,7.54-3.25,11.3q-3.3,11.22-6.87,22.38c-4.86,15.29-10,30.48-15.32,45.61-2.93,8.33-5.93,16.6-8.92,24.88-5,7.07-15.73,5.84-22.6,3.83-8.43-2.43-16.8-7.47-22.37-14.84-2.83-3.71-5.35-8.73-4.32-13.69,12.15-24.07,24.39-48.06,37.54-71.52,3.78-6.73,7.63-13.45,11.56-20.09,1.64-2.76,3.28-5.51,4.92-8.2a5.76,5.76,0,0,1,3.3-3.39A12.75,12.75,0,0,1,216,37.21a22.83,22.83,0,0,1,10.82,2.36,0.3,0.3,0,0,1,.1.05,0.08,0.08,0,0,1,.06,0,0.06,0.06,0,0,1,.06,0l0.3,0.14a0.05,0.05,0,0,0,0,0,0.73,0.73,0,0,1,.18.1,0.15,0.15,0,0,1,.09,0L228,40.14h0l0.27,0.13a1.15,1.15,0,0,0,.23.12l0.13,0.07h0c4.34,2.37,8.72,6,10.43,11,1.24,3.58-.37,7.05-1.32,10.49m11.53,88.53c-3.3,0-3.3-5.54,0-5.54s3.3,5.54,0,5.54m51,38.56,0,0.53a171.06,171.06,0,0,1-3.45,29.78,179.55,179.55,0,0,1-8.88,28.69s0,0,0,0c-0.56,1.34-1.12,2.68-1.72,4a165.67,165.67,0,0,0,8.6-83.35,159.87,159.87,0,0,0-27.07-67.54A149.32,149.32,0,0,0,241,72.3c0.93-3.24,1.84-6.4,2.71-9.5,28.13,23.08,47.79,57,54.21,94.55a161.76,161.76,0,0,1,2.32,31.74m-113,89.26a0.33,0.33,0,0,1,0-.09,0.15,0.15,0,0,1,0-.06,0.65,0.65,0,0,0,0,.15" transform="translate(-10.26 -25.52)"/><path class="cls-14" d="M237.79,62c-1,3.77-2.14,7.54-3.25,11.3q-3.3,11.22-6.87,22.38c-4.86,15.29-10,30.48-15.32,45.61-2.93,8.33-5.93,16.6-8.92,24.88-5,7.07-15.73,5.84-22.6,3.83-8.43-2.43-16.8-7.47-22.37-14.84-2.83-3.71-5.35-8.73-4.32-13.69,12.15-24.07,24.39-48.06,37.54-71.52,3.78-6.73,7.63-13.45,11.56-20.09,1.64-2.76,3.28-5.51,4.92-8.2a5.76,5.76,0,0,1,3.3-3.39A12.75,12.75,0,0,1,216,37.21a22.83,22.83,0,0,1,10.82,2.36,0.3,0.3,0,0,1,.1.05,0.08,0.08,0,0,1,.06,0,0.06,0.06,0,0,1,.06,0l0.3,0.14a0.05,0.05,0,0,0,0,0,0.73,0.73,0,0,1,.18.1,0.15,0.15,0,0,1,.09,0L228,40.14h0l0.27,0.13a1.15,1.15,0,0,0,.23.12l0.13,0.07h0c4.34,2.37,8.72,6,10.43,11,1.24,3.58-.37,7.05-1.32,10.49" transform="translate(-10.26 -25.52)"/><path class="cls-14" d="M199.7,176.29q-8.71,23.45-17.94,46.63v0a0,0,0,0,1,0,0v0s0,0.06-.06.13,0,0.13-.07.19l-0.32.78-0.09-.05c-1.31,4.5-5.49,6.94-9.51,7.91-5.45,1.31-11.26.57-16.59-1-10.33-3.06-21.53-10-26.81-20.47-2.06-4.12-3-9.07-.74-13.3l-0.09-.05q10.72-23.09,21.89-45.95c3.32,9.17,11.1,15.95,19,20.35,9.28,5.22,21.12,8.57,31.38,4.77" transform="translate(-10.26 -25.52)"/><path class="cls-3" d="M164.44,160.28c-2.83-3.71-5.35-8.73-4.32-13.69,12.15-24.07,24.39-48.06,37.54-71.52,3.78-6.73,7.63-13.45,11.56-20.09,1.64-2.76,3.28-5.51,4.92-8.2a5.76,5.76,0,0,1,3.3-3.39A12.75,12.75,0,0,1,222,42.33a22.83,22.83,0,0,1,10.82,2.36,0.3,0.3,0,0,1,.1.05,0.08,0.08,0,0,1,.06,0,0.06,0.06,0,0,1,.06,0l0.3,0.14a0.05,0.05,0,0,0,0,0,0.73,0.73,0,0,1,.18.1,0.15,0.15,0,0,1,.09,0L234,45.26h0l0.27,0.13a1.15,1.15,0,0,0,.23.12l0.13,0.07h0c0.54,0.29,1.08.61,1.61,0.94a26,26,0,0,0-7.6-6.06h0l-0.13-.07a1.15,1.15,0,0,1-.23-0.12L228,40.15h0L227.69,40a0.15,0.15,0,0,0-.09,0,0.73,0.73,0,0,0-.18-0.1,0.05,0.05,0,0,1,0,0l-0.3-.14a0.06,0.06,0,0,0-.06,0,0.08,0.08,0,0,0-.06,0,0.3,0.3,0,0,0-.1-0.05A22.83,22.83,0,0,0,216,37.21a12.75,12.75,0,0,0-4.58,1.06,5.76,5.76,0,0,0-3.3,3.39c-1.64,2.69-3.28,5.43-4.92,8.2-3.93,6.64-7.77,13.35-11.56,20.09-13.14,23.46-25.38,47.45-37.54,71.52-1,5,1.49,10,4.32,13.69a39,39,0,0,0,8.76,8.35,36.52,36.52,0,0,1-2.78-3.24" transform="translate(-10.26 -25.52)"/><path class="cls-3" d="M134.28,215.59c-2.06-4.12-3-9.07-.74-13.3l-0.09-.05q10-21.55,20.41-42.9a31.2,31.2,0,0,1-4.5-8.17q-11.19,22.83-21.9,45.95l0.09,0.05c-2.29,4.23-1.32,9.18.74,13.3a36.81,36.81,0,0,0,11.84,13.24,33.39,33.39,0,0,1-5.86-8.13" transform="translate(-10.26 -25.52)"/></g><g class="cls-15"><rect class="cls-16" x="68.62" y="172.22" width="114.09" height="141.69"/></g><g class="cls-12"><path class="cls-13" d="M234.23,58.21s-15-.33-23.9-8.35c0,0,8.14,14.69,23.9,8.35" transform="translate(-10.26 -25.52)"/><path class="cls-13" d="M210.69,50s8,14.38,23.39,8.17c0,0-14.72-.33-23.39-8.17" transform="translate(-10.26 -25.52)"/><path class="cls-13" d="M216.42,106.65c-32.57,9.71-26-27.1-32.26-9-1.21,3.51-3,6.84-3.76,10.62-2.62,13.66,5.82,26.2,15.77,25.76s32.7-31,20.25-27.33" transform="translate(-10.26 -25.52)"/></g><g class="cls-17"><rect class="cls-18" x="173.41" y="94.14" width="18.72" height="13.62"/></g><g class="cls-12"><path class="cls-14" d="M192.29,105.51s-1.15,2.8.39,3.48,3.65-1.79,3.65-1.79-2.71-2-4-1.69" transform="translate(-10.26 -25.52)"/><path class="cls-14" d="M198.17,108.64s-1.15,2.8.39,3.48,3.65-1.79,3.65-1.79-2.71-2-4-1.69" transform="translate(-10.26 -25.52)"/><path class="cls-13" d="M176.81,136.88s3.77-4,8.58-1.38,6.38,9.93,6.38,9.93-10.14-9.7-15-8.55" transform="translate(-10.26 -25.52)"/><path class="cls-13" d="M199.66,68.32s-11.77,18.1-4,24.48S212,78,199.66,68.32" transform="translate(-10.26 -25.52)"/><path class="cls-13" d="M228.94,84s-7.78,20.46-16.92,16.87S214.8,78,228.94,84" transform="translate(-10.26 -25.52)"/><path class="cls-13" d="M100.93,327.29c-30.13-81.53,16.72-103.07,17.84-103.57-23.61,35.61-17.84,103.57-17.84,103.57" transform="translate(-10.26 -25.52)"/><path class="cls-13" d="M146.53,219.54s19.9-43.76,22.07-42.59-6.51,42.2-22.07,42.59" transform="translate(-10.26 -25.52)"/></g></svg>