<svg xmlns="http://www.w3.org/2000/svg" xmlns:xlink="http://www.w3.org/1999/xlink" width="27" height="27" viewBox="0 0 27 27"><defs><path id="a" d="M1627.81 58.06c5.63 0 10.19 4.4 10.19 9.84 0 5.43-4.56 9.84-10.19 9.84-5.62 0-10.19-4.4-10.19-9.84 0-5.43 4.57-9.84 10.19-9.84z"/><path id="b" d="M1613.63 81.75V54.06H1642v27.69zm3.99-13.85c0 5.43 4.57 9.84 10.19 9.84 5.63 0 10.19-4.4 10.19-9.84 0-5.43-4.56-9.84-10.19-9.84-5.62 0-10.19 4.4-10.19 9.84z"/><mask id="d" width="2" height="2" x="-1" y="-1"><path fill="#fff" d="M1617.63 58.06H1638v19.69h-20.37z"/><use xlink:href="#a"/></mask><filter id="c" width="47.47" height="46.79" x="1600.53" y="40.96" filterUnits="userSpaceOnUse"><feOffset dx="-7.1" dy="-7.1" in="SourceGraphic" result="FeOffset1126Out"/><feGaussianBlur in="FeOffset1126Out" result="FeGaussianBlur1127Out" stdDeviation="0 0"/></filter><linearGradient id="e" x1="1628" x2="1627.62" y1="77.74" y2="58.06" gradientUnits="userSpaceOnUse"><stop offset="0" stop-color="#fd4735"/><stop offset="1" stop-color="#ff0084"/></linearGradient><clipPath id="f"><use fill="#fff" xlink:href="#b"/></clipPath></defs><desc>Generated with Avocode.</desc><g transform="translate(-1611 -51)"><g filter="url(#c)"><use fill="none" stroke-width="0" mask="url(&quot;#d&quot;)" xlink:href="#a"/><use fill="#26d9ff" xlink:href="#a"/></g><use fill="#000030" xlink:href="#a"/><use fill="url(#e)" xlink:href="#a"/><use fill="#fff" fill-opacity="0" stroke="#fff" stroke-linecap="round" stroke-linejoin="round" stroke-miterlimit="50" stroke-width="8" clip-path="url(&quot;#f&quot;)" xlink:href="#a"/></g></svg>