<svg xmlns="http://www.w3.org/2000/svg" xmlns:xlink="http://www.w3.org/1999/xlink" width="22" height="16" viewBox="0 0 22 16"><defs><path id="a" d="M1484.63 272.51c0-.83.68-1.51 1.51-1.51h13.35a1.52 1.52 0 0 1 0 3.03h-13.34c-.84 0-1.52-.68-1.52-1.51z"/><path id="b" d="M1484.63 279c0-.83.67-1.5 1.5-1.5h13.37a1.5 1.5 0 1 1 0 3h-13.37a1.5 1.5 0 0 1-1.5-1.5z"/><path id="c" d="M1484.63 285.49c0-.84.68-1.52 1.51-1.52h13.35a1.52 1.52 0 0 1 0 3.03h-13.34c-.84 0-1.52-.68-1.52-1.51z"/><path id="d" d="M1479 272.51c0-.83.68-1.51 1.51-1.51h.26a1.52 1.52 0 0 1 0 3.03h-.25c-.84 0-1.52-.68-1.52-1.51z"/><path id="e" d="M1479 279c0-.83.67-1.5 1.5-1.5h.28a1.5 1.5 0 1 1 0 3h-.28a1.5 1.5 0 0 1-1.5-1.5z"/><path id="f" d="M1479 285.49c0-.84.68-1.52 1.51-1.52h.26a1.52 1.52 0 0 1 0 3.03h-.25c-.84 0-1.52-.68-1.52-1.51z"/></defs><desc>Generated with Avocode.</desc><g transform="translate(-1479 -271)"><use fill="#000031" xlink:href="#a"/></g><g transform="translate(-1479 -271)"><use fill="#000031" xlink:href="#b"/></g><g transform="translate(-1479 -271)"><use fill="#000031" xlink:href="#c"/></g><g transform="translate(-1479 -271)"><use fill="#000031" xlink:href="#d"/></g><g transform="translate(-1479 -271)"><use fill="#000031" xlink:href="#e"/></g><g transform="translate(-1479 -271)"><use fill="#000031" xlink:href="#f"/></g></svg>